<?xml version="1.0" standalone="no"?>
<!DOCTYPE svg PUBLIC "-//W3C//DTD SVG 20010904//EN"
		"http://www.w3.org/TR/2001/REC-SVG-20010904/DTD/svg10.dtd">
<svg version="1.0" xmlns="http://www.w3.org/2000/svg"
     width="557.000000pt" height="515.000000pt" viewBox="0 0 557.000000 515.000000"
     preserveAspectRatio="xMidYMid meet">

	<!-- Добавление белого фона -->
	<rect width="557.000000pt" height="515.000000pt" fill="white"/>

	<g transform="translate(0.000000,515.000000) scale(0.100000,-0.100000)"
	   fill="#000000" stroke="none">
		<path d="M1245 4986 c-421 -66 -752 -406 -805 -827 -6 -55 -10 -588 -10 -1534
0 -1566 0 -1554 53 -1710 97 -284 318 -505 602 -602 156 -53 143 -53 1715 -53
1572 0 1559 0 1715 53 284 97 505 318 602 602 53 156 53 143 53 1715 0 1572 0
1559 -53 1715 -118 344 -407 586 -767 640 -130 20 -2978 20 -3105 1z m1379
-1592 c42 -63 79 -114 84 -114 4 1 27 5 52 10 67 13 134 -5 182 -48 48 -43 68
-80 77 -141 7 -52 33 -67 57 -32 20 28 91 67 137 75 57 11 136 -16 181 -61 47
-47 68 -93 69 -155 1 -58 15 -61 51 -13 51 66 151 98 236 75 84 -23 160 -122
160 -210 0 -24 4 -26 153 -54 270 -51 361 -82 440 -147 80 -66 103 -170 57
-259 -33 -65 -170 -198 -274 -265 -253 -165 -626 -267 -1115 -305 -197 -16
-640 -13 -916 5 -355 23 -596 51 -927 105 -293 49 -308 55 -308 115 0 18 14
99 30 181 17 82 67 365 111 629 99 592 86 567 257 481 68 -35 104 -62 167
-126 124 -126 87 -124 417 -22 156 49 297 93 315 98 l31 9 -39 68 c-21 38 -39
76 -39 86 0 32 32 62 103 98 142 71 150 69 251 -83z"/>
		<path d="M2460 3361 c0 -5 12 -35 27 -67 51 -111 29 -184 -60 -198 -50 -8
-325 -90 -492 -146 -159 -54 -203 -62 -267 -49 -45 10 -63 22 -147 104 -90 86
-137 122 -147 112 -4 -4 -74 -387 -74 -405 0 -5 228 24 508 64 279 41 523 73
542 73 30 1 60 -19 215 -144 119 -96 190 -146 210 -149 16 -3 356 -19 755 -36
399 -17 752 -33 785 -36 37 -4 56 -2 50 3 -19 18 -116 52 -178 64 -221 40
-367 72 -397 87 -41 20 -61 63 -42 92 33 54 -1 120 -61 120 -41 0 -64 -23 -75
-75 -6 -29 -16 -44 -39 -58 -32 -18 -32 -18 -147 18 -103 32 -117 39 -122 62
-4 14 -2 40 5 58 18 51 14 93 -14 120 -44 45 -96 28 -125 -41 -29 -66 -54 -73
-138 -40 -38 15 -90 40 -116 56 -46 29 -46 30 -46 84 0 103 -44 142 -116 105
-61 -31 -94 -25 -140 24 -22 23 -64 79 -93 125 -53 81 -61 91 -61 73z"/>
		<path d="M1800 2629 c-267 -37 -494 -69 -505 -71 -16 -2 -22 -17 -34 -77 -11
-61 -12 -74 0 -81 7 -5 63 -22 123 -39 608 -165 1296 -210 2041 -135 191 19
467 58 615 88 110 22 113 23 70 29 -25 3 -350 20 -724 36 -530 24 -684 34
-700 45 -12 8 -94 73 -181 145 -131 108 -164 131 -189 130 -17 -1 -249 -32
-516 -70z"/>
		<path d="M1194 2145 c-19 -94 -19 -105 -5 -110 32 -10 332 -55 526 -79 1138
-143 1985 -74 2443 199 45 27 80 50 78 52 -2 2 -57 -7 -122 -21 -455 -96 -879
-139 -1369 -139 -525 0 -947 51 -1391 168 -73 19 -133 35 -136 35 -2 0 -13
-47 -24 -105z"/>
	</g>
</svg>
